<?xml version="1.0" standalone="no"?><!DOCTYPE svg PUBLIC "-//W3C//DTD SVG 1.1//EN" "http://www.w3.org/Graphics/SVG/1.1/DTD/svg11.dtd"><svg t="1676772866105" class="icon" viewBox="0 0 1024 1024" version="1.1" xmlns="http://www.w3.org/2000/svg" p-id="3793" xmlns:xlink="http://www.w3.org/1999/xlink" width="16" height="16"><path d="M173.708 319.953h673.184c35.347 0 64-28.654 64-64s-28.653-64-64-64H173.708c-35.346 0-64 28.654-64 64s28.653 64 64 64zM846.892 449.717H173.708c-35.346 0-64 28.654-64 64 0 35.346 28.654 64 64 64h673.184c35.347 0 64-28.654 64-64 0-35.346-28.654-64-64-64zM846.892 704.165H173.708c-35.346 0-64 28.654-64 64s28.654 64 64 64h673.184c35.347 0 64-28.654 64-64s-28.654-64-64-64z" p-id="3794" fill="#256371"></path></svg>