<?xml version="1.0" standalone="no"?>
<!DOCTYPE svg PUBLIC "-//W3C//DTD SVG 1.1//EN" "http://www.w3.org/Graphics/SVG/1.1/DTD/svg11.dtd">
<svg
  t="1676184239585"
  class="icon"
  viewBox="0 0 1024 1024"
  version="1.1"
  xmlns="http://www.w3.org/2000/svg"
  p-id="2827"
  width="64"
  height="64"
  data-spm-anchor-id="a313x.7781069.0.i11"
  xmlns:xlink="http://www.w3.org/1999/xlink"
>
  <path
    d="M512 512c141.385 0 256-114.615 256-256S653.385 0 512 0 256 114.615 256 256s114.615 256 256 256zM366.336 110.336C405.244 71.428 456.976 50 512 50s106.756 21.428 145.664 60.336S718 200.976 718 256s-21.428 106.756-60.336 145.664S567.024 462 512 462s-106.756-21.428-145.664-60.336S306 311.024 306 256s21.428-106.756 60.336-145.664z"
    fill="#256371"
    p-id="2828"
  ></path>
  <path
    d="M716.903 474C669.947 527.911 590.06 562.11 512 562.11S354.053 527.911 307.097 474C184.731 524.207 112 620.226 112 730.426 112 892.563 291.087 1024 512 1024c220.914 0 400-131.438 400-293.574 0-110.2-72.731-206.22-195.097-256.426z m48.356 423.705c-32.252 23.672-70.063 42.335-112.384 55.473C608.365 966.994 560.969 974 512 974c-48.968 0-96.365-7.006-140.874-20.822-42.321-13.138-80.132-31.801-112.384-55.473C196.357 851.919 162 792.512 162 730.426c0-21.672 3.545-42.928 10.538-63.177 6.961-20.159 17.368-39.432 30.933-57.281 22.865-30.09 54.718-56.024 93.187-76.069C353.356 582.787 432.632 612.11 512 612.11c79.367 0 158.644-29.323 215.342-78.212 38.469 20.044 70.321 45.979 93.188 76.068 13.564 17.851 23.972 37.123 30.933 57.282 6.992 20.25 10.537 41.506 10.537 63.178 0 62.086-34.356 121.493-96.741 167.279z"
    fill="#256371"
    p-id="2829"
  ></path>
</svg>
