<?xml version="1.0" standalone="no"?><!DOCTYPE svg PUBLIC "-//W3C//DTD SVG 1.1//EN" "http://www.w3.org/Graphics/SVG/1.1/DTD/svg11.dtd"><svg t="1676786422760" class="icon" viewBox="0 0 1024 1024" version="1.1" xmlns="http://www.w3.org/2000/svg" p-id="11179" xmlns:xlink="http://www.w3.org/1999/xlink" width="16" height="16"><path d="M88 193.6h848c12.8 0 24-11.2 24-24s-11.2-24-24-24h-848c-12.8 0-24 11.2-24 24s11.2 24 24 24zM936 830.4h-848c-12.8 0-24 11.2-24 24s11.2 24 24 24h848c12.8 0 24-11.2 24-24s-11.2-24-24-24zM160 388.8h54.4v256H160zM400 550.4c3.2-4.8 8-6.4 14.4-8 6.4-1.6 16-1.6 28.8-1.6H480c27.2 0 46.4-3.2 59.2-11.2 9.6-4.8 16-14.4 20.8-25.6 4.8-11.2 8-24 8-40 0-12.8-1.6-24-6.4-33.6-4.8-9.6-9.6-19.2-17.6-24-12.8-11.2-35.2-16-68.8-16h-132.8v46.4H464c14.4 0 24 1.6 30.4 6.4 8 4.8 12.8 14.4 12.8 25.6 0 11.2-4.8 19.2-14.4 24-6.4 3.2-16 4.8-30.4 4.8h-41.6c-17.6 0-30.4 1.6-38.4 3.2s-16 6.4-22.4 12.8c-14.4 14.4-22.4 36.8-20.8 65.6v67.2H560v-44.8H393.6V576c0-12.8 1.6-22.4 6.4-25.6zM886.4 459.2c0-14.4-3.2-27.2-11.2-38.4-8-12.8-17.6-22.4-32-27.2-6.4-1.6-11.2-3.2-16-3.2-4.8 0-16-1.6-32-1.6h-120v46.4h110.4c9.6 0 16 0 19.2 1.6 3.2 0 6.4 1.6 9.6 4.8 8 4.8 11.2 12.8 11.2 24 0 9.6-3.2 17.6-9.6 22.4-4.8 4.8-16 6.4-32 6.4h-86.4v44.8H784c12.8 0 22.4 1.6 28.8 4.8 8 4.8 12.8 14.4 12.8 27.2 0 11.2-3.2 19.2-9.6 24-4.8 4.8-16 6.4-30.4 6.4h-110.4v44.8h113.6c19.2 0 33.6-1.6 43.2-3.2 9.6-1.6 19.2-4.8 27.2-11.2 19.2-11.2 27.2-30.4 27.2-54.4 0-25.6-11.2-46.4-33.6-62.4 22.4-14.4 33.6-32 33.6-56z" fill="#256371" p-id="11180"></path></svg>